PathFileType  4	(X/Y/Z) C:\Users\antoi\Documents\MyRepositories\mobilecap\ResultsAnalysis
DataRate	CameraRate	NumFrames	NumMarkers	Units	OrigDataRate	OrigDataStartFrame	OrigNumFrames
100.0	100.0	6	51	mm	100.0	116	231
Frame#	Time	r_knee			r_shank_antsup			r_ankle			r_calc			r_5meta			r_toe			L_knee			L_shank_antsup			L_ankle			L_calc			L_5meta			L_toe			r_sh2			r_sh3			r_sh4			L_sh2			L_sh3			r_thigh1			r_thigh2			r_thigh3			r_thigh4			r_thigh5			L_thigh1			L_thigh2			L_thigh3			L_thigh4			r.ASIS			r.PSIS			L.ASIS			L.PSIS			C7			R_Shoulder			L_Shoulder			R_Sternum			L_Sternum			R_humerus			R_elbow_med			R_elbow_lat			R_forearm			R_wrist_radius			R_wrist_ulna			L_humerus			L_elbow_med			L_elbow_lat			L_forearm			L_wrist_radius			L_wrist_ulna			R_HJC			L_HJC			R_HJC_reg			L_HJC_reg			
		X1	Y1	Z1	X2	Y2	Z2	X3	Y3	Z3	X4	Y4	Z4	X5	Y5	Z5	X6	Y6	Z6	X7	Y7	Z7	X8	Y8	Z8	X9	Y9	Z9	X10	Y10	Z10	X11	Y11	Z11	X12	Y12	Z12	X13	Y13	Z13	X14	Y14	Z14	X15	Y15	Z15	X16	Y16	Z16	X17	Y17	Z17	X18	Y18	Z18	X19	Y19	Z19	X20	Y20	Z20	X21	Y21	Z21	X22	Y22	Z22	X23	Y23	Z23	X24	Y24	Z24	X25	Y25	Z25	X26	Y26	Z26	X27	Y27	Z27	X28	Y28	Z28	X29	Y29	Z29	X30	Y30	Z30	X31	Y31	Z31	X32	Y32	Z32	X33	Y33	Z33	X34	Y34	Z34	X35	Y35	Z35	X36	Y36	Z36	X37	Y37	Z37	X38	Y38	Z38	X39	Y39	Z39	X40	Y40	Z40	X41	Y41	Z41	X42	Y42	Z42	X43	Y43	Z43	X44	Y44	Z44	X45	Y45	Z45	X46	Y46	Z46	X47	Y47	Z47	X48	Y48	Z48	X49	Y49	Z49	X50	Y50	Z50	X51	Y51	Z51	

116	1.15000000	-229.43118	452.79852	-422.32126	-217.02012	381.61812	-396.53844	-293.04899	89.65509	-431.43303	-362.65349	56.59988	-472.76604	-195.19250	44.89968	-400.42888	-149.13345	65.31441	-454.37600	-247.73836	445.93370	-806.77687	-216.33233	378.64360	-817.80658	-314.54124	94.44696	-779.88270	-384.36398	60.29903	-729.73906	-227.01702	42.54439	-813.52361	-172.30738	63.01048	-761.82844	-235.90670	270.13670	-391.16031	-289.70210	391.95691	-412.33244	-314.31771	278.30492	-414.21937	-303.70510	397.55131	-827.24511	-317.09585	276.45181	-819.04631	-361.75453	727.43570	-461.75869	-286.52211	645.75812	-441.26909	-309.54874	605.30415	-392.91516	-436.10313	677.91535	-389.74765	-363.13176	586.14599	-387.61293	-388.80854	694.73941	-787.76911	-293.33484	596.73018	-806.03317	-477.41372	617.10947	-784.77896	-372.87881	521.35115	-800.47925	-405.66841	799.81577	-481.25782	-585.97933	849.16510	-535.71577	-422.13958	790.66228	-723.02856	-596.20094	838.27001	-644.16673	-308.47513	1250.81774	-591.50972	-273.51047	1201.35751	-467.85310	-275.02202	1233.58918	-728.66800	-227.63759	1131.95414	-585.69078	-229.63613	1134.16927	-632.56068	-453.43605	1152.57877	-338.54255	-569.92513	1103.21808	-363.81666	-535.69590	1150.94395	-309.01051	-467.61418	1062.17791	-277.73152	-409.32496	965.59582	-256.33490	-439.02192	955.44332	-226.19099	-335.23464	1201.95171	-829.20632	-561.42232	1163.44170	-868.59432	-535.88076	1207.53468	-914.83653	-466.97595	1125.60953	-950.21778	-413.74176	1015.55335	-962.16794	-435.59514	1009.11728	-991.17855	-483.94183	736.94948	-493.71424	-494.61854	730.45241	-693.61619	-481.93276	741.21360	-502.16789	-496.87934	725.27283	-660.71753	
117	1.16000000	-197.42338	460.29506	-425.33455	-187.06165	388.06447	-398.87466	-288.01748	95.78913	-430.56500	-359.37927	59.62155	-473.25608	-192.58877	45.13369	-400.26517	-145.65509	64.93951	-453.55554	-217.48893	451.82516	-808.46575	-189.47499	382.15111	-816.90181	-309.51993	97.54084	-783.27881	-381.99818	64.36740	-731.51997	-225.22697	41.29747	-814.76025	-169.66513	61.97152	-764.10260	-216.47306	279.01688	-391.99506	-258.00926	405.72268	-413.85046	-294.52944	295.45343	-411.85837	-273.75632	410.30164	-828.27038	-299.93817	291.32926	-823.16366	-358.95877	718.54311	-462.88109	-276.47450	644.29855	-442.95056	-293.60674	601.91899	-394.25892	-426.62834	662.07605	-389.34625	-345.10841	577.76933	-388.10318	-381.11938	687.52106	-786.76046	-277.28753	598.35115	-803.07781	-462.78678	603.04170	-785.91881	-350.43761	516.57560	-803.84875	-402.35129	774.35170	-480.67738	-581.64337	827.85249	-537.49713	-415.74485	766.63518	-722.73911	-590.94195	816.07687	-644.27235	-293.99084	1221.95497	-592.53072	-260.24158	1169.93156	-465.94196	-263.43202	1201.83261	-733.31638	-214.26499	1103.59455	-587.00355	-216.22904	1106.42619	-632.95811	-440.14920	1108.22771	-336.27423	-553.91629	1055.51355	-361.84516	-521.46254	1103.04859	-305.73950	-450.55129	1014.77037	-276.99835	-389.66955	919.41594	-258.46793	-418.98807	907.92113	-227.83306	-326.64461	1164.78293	-832.56548	-551.88980	1117.20005	-865.64692	-529.19120	1161.84542	-913.63694	-458.28275	1080.67399	-948.70644	-401.87230	972.21172	-960.33389	-424.41145	964.23961	-987.81674	-481.53440	713.12435	-494.03132	-490.13380	707.37744	-694.05772	-479.60456	719.49012	-501.71646	-493.40989	701.98194	-660.25216	
118	1.17000000	-174.13502	463.14454	-426.80973	-165.86943	389.86736	-400.73827	-281.57945	97.38347	-430.76403	-354.15108	62.32616	-475.76442	-189.40974	44.10944	-398.91769	-140.51904	62.84317	-450.92179	-196.09359	455.17573	-809.96927	-168.87910	383.91963	-816.54981	-304.60844	99.75694	-785.18623	-379.40168	68.77006	-732.72703	-223.35425	40.67721	-815.69301	-166.84614	60.33343	-765.08037	-200.91427	282.38199	-392.32632	-235.72341	411.82136	-414.91587	-279.44261	303.87579	-408.17895	-251.05450	418.79476	-826.99811	-285.79458	301.89873	-829.92452	-358.35435	707.91022	-464.53385	-269.95105	641.18331	-446.38761	-281.89224	598.00512	-396.25734	-418.99970	647.63531	-388.94733	-331.16528	569.99897	-387.97448	-374.95739	680.73177	-782.02109	-266.15343	597.97313	-800.47003	-450.67442	591.75504	-789.32182	-333.60926	511.91348	-807.97865	-398.37839	752.13315	-477.07684	-576.08961	808.30354	-539.81392	-408.90300	745.39245	-723.70871	-584.35834	797.66301	-644.34354	-278.97456	1194.65615	-593.55353	-246.82161	1139.14864	-464.31499	-251.93687	1169.40650	-738.16933	-201.95138	1075.47991	-588.89053	-203.82597	1078.05702	-633.83425	-425.56677	1062.62309	-333.21914	-536.48353	1006.55936	-358.50843	-505.02297	1053.41396	-301.15016	-431.46430	965.52543	-275.72804	-368.28713	871.24805	-261.04541	-396.95578	858.11074	-230.05891	-317.46814	1125.94235	-835.78223	-540.93414	1069.55457	-864.31178	-520.74528	1114.56730	-914.06537	-447.58059	1033.90626	-948.05887	-388.52449	927.04949	-958.17539	-411.23978	917.26943	-984.21990	-478.52438	692.12179	-494.10475	-484.44966	687.29453	-694.24938	-476.30197	697.09271	-499.86725	-489.08582	680.67628	-661.51436	
119	1.18000000	-161.72531	456.66433	-425.86107	-153.47849	384.11863	-401.79477	-277.44781	97.01635	-433.64646	-350.47351	63.19911	-479.40980	-187.52159	44.27588	-398.69626	-136.94954	61.29416	-450.15315	-183.39531	451.73835	-811.80282	-155.56148	379.84040	-818.35256	-302.41994	101.36420	-784.44259	-377.94118	71.22206	-732.40442	-222.64489	40.89967	-815.74312	-165.58009	59.70719	-765.04175	-188.82094	276.85925	-392.42972	-223.80049	406.35595	-413.78949	-267.32283	298.43094	-409.08025	-236.96011	416.55444	-828.61407	-274.74691	300.69569	-832.06078	-357.83282	694.24407	-464.86317	-264.91522	633.71769	-447.39632	-274.84385	589.91340	-396.53360	-414.08891	632.12812	-388.92339	-322.50540	559.21672	-387.63323	-369.70660	670.89261	-777.51195	-258.05849	592.90207	-800.15781	-441.46858	579.49341	-792.86227	-321.27139	504.33710	-810.67186	-393.88721	733.17202	-471.92257	-570.02912	790.02266	-541.84417	-401.57045	727.30300	-725.36852	-577.26041	781.34884	-644.61791	-263.81213	1169.89308	-594.49442	-233.71649	1109.34193	-462.32820	-240.87940	1137.21389	-742.86127	-190.60266	1047.28642	-590.44947	-192.48109	1049.78121	-634.80703	-409.41991	1016.37191	-329.35012	-517.38749	956.69899	-354.23513	-486.48260	1002.46331	-295.38280	-410.38146	914.74693	-274.28617	-345.26984	821.58446	-264.01812	-373.21462	806.53086	-233.07293	-308.13479	1085.96390	-838.75588	-528.71332	1021.13452	-864.71857	-510.63053	1066.07375	-915.92493	-434.93091	985.83658	-948.34197	-373.01201	881.21160	-956.44192	-395.90911	869.31334	-981.30689	-474.45134	673.58771	-494.05228	-477.45791	669.82188	-694.28067	-471.89806	675.43028	-497.27183	-483.59778	661.40806	-663.66571	
120	1.19000000	-154.90430	444.26483	-424.38368	-145.46575	372.89692	-401.04024	-276.93344	96.36682	-436.95486	-349.67442	62.12338	-482.07688	-187.43553	45.00779	-399.31743	-136.32042	61.06656	-450.88304	-175.01347	442.61985	-813.68600	-146.99423	370.23147	-820.92471	-302.31341	101.23053	-782.44639	-377.61617	70.52730	-730.38081	-222.93286	41.18004	-815.23334	-165.49222	59.64272	-764.74992	-182.32354	265.96734	-394.76459	-215.83205	396.28623	-411.11764	-259.87016	289.09488	-412.49817	-227.43471	407.91328	-833.35315	-267.82780	292.73356	-831.58318	-355.64734	680.28049	-461.85247	-259.97266	623.04650	-443.71559	-270.35731	577.22344	-394.32404	-410.90607	614.70303	-389.27136	-317.17916	544.72808	-387.96188	-365.09165	658.50712	-776.55617	-251.43097	584.05955	-801.95923	-434.20815	565.38217	-794.43157	-311.79734	493.63938	-811.22424	-389.07533	716.49410	-468.30206	-564.05664	773.22087	-543.31303	-394.37749	711.52154	-726.22217	-570.36070	766.02328	-645.02508	-248.98193	1147.41053	-595.60377	-220.88623	1080.53428	-459.54156	-230.44034	1106.31893	-747.53672	-179.65786	1019.32955	-591.11612	-181.84283	1022.43543	-635.26559	-390.65819	970.51504	-325.46849	-496.25617	906.50663	-348.92073	-465.80634	950.45283	-288.89934	-387.03575	863.01666	-272.75218	-320.73205	770.83075	-267.30855	-347.96829	753.68334	-236.94167	-299.01514	1045.36397	-841.19271	-515.69510	972.38292	-866.18887	-498.87353	1016.44690	-918.76404	-420.32433	936.80970	-949.35982	-354.71697	835.23482	-954.90343	-378.37401	820.78447	-978.55028	-469.60597	656.94887	-494.09224	-470.23738	654.11263	-694.36219	-466.87436	656.53016	-495.67219	-477.37988	644.51012	-665.22223	
121	1.20000000	-149.06088	432.08556	-423.82952	-140.06241	362.00665	-399.14055	-277.87690	95.47829	-438.23648	-350.29273	60.74930	-482.77205	-188.09869	44.96131	-399.38451	-136.98595	60.91394	-451.09502	-167.99006	431.53465	-815.34031	-140.65676	358.47731	-822.51569	-303.23411	99.51351	-780.24212	-378.17457	67.82293	-727.94054	-223.71063	41.41541	-814.60435	-165.98479	59.66391	-764.31728	-181.13032	256.04322	-398.35883	-209.09980	388.68756	-410.19828	-257.55876	283.79132	-414.36608	-219.62140	398.71278	-837.04554	-264.07578	284.65314	-831.65568	-351.21070	666.65240	-455.84335	-255.45947	609.95580	-436.83060	-267.42811	560.32620	-391.08568	-408.51241	595.47801	-389.92389	-313.53322	526.88033	-390.30890	-361.11093	644.76672	-778.71657	-246.19688	572.38343	-804.89336	-428.32699	549.84521	-793.62735	-304.61537	480.36920	-810.41972	-384.21371	700.80691	-467.19463	-558.26850	758.65599	-544.04837	-388.16923	696.24667	-725.15002	-563.97380	752.02332	-645.97113	-234.95112	1126.15165	-596.80987	-207.99158	1052.90618	-456.38666	-220.55430	1077.70167	-752.75159	-168.75403	992.84637	-591.11834	-171.39514	996.63236	-635.21081	-368.39547	927.15378	-322.99810	-472.33664	856.53885	-343.12904	-441.78753	898.17071	-283.05179	-360.77250	810.94203	-271.58236	-294.75143	719.42485	-271.00300	-321.31607	700.35120	-241.29882	-289.12556	1005.92001	-842.42589	-501.18722	923.18810	-868.26465	-484.98297	965.86213	-922.33445	-403.24811	887.31593	-950.38595	-334.06442	789.17877	-952.29908	-358.45236	772.16191	-974.86404	-465.23786	641.88460	-493.98940	-464.26977	639.27549	-694.26572	-462.22368	640.85267	-495.37338	-471.71897	629.80878	-665.04723	
